<?xml version="1.0" standalone="no"?>
<!DOCTYPE svg PUBLIC "-//W3C//DTD SVG 20010904//EN"
 "http://www.w3.org/TR/2001/REC-SVG-20010904/DTD/svg10.dtd">
<svg version="1.0" xmlns="http://www.w3.org/2000/svg"
 width="1280.000000pt" height="640.000000pt" viewBox="0 0 1280.000000 640.000000"
 preserveAspectRatio="xMidYMid meet">
<g transform="translate(0.000000,640.000000) scale(0.100000,-0.100000)"
fill="#000000" stroke="none">
<path d="M6048 5070 c-15 -4 -58 -10 -95 -13 -125 -8 -313 -99 -743 -357 -330
-198 -469 -276 -877 -496 l-283 -151 -162 -26 c-382 -62 -1388 -172 -1753
-192 -595 -33 -703 -71 -1130 -397 -124 -94 -240 -161 -645 -373 -155 -81
-214 -119 -258 -170 -45 -51 -60 -83 -83 -184 -19 -83 -20 -103 -11 -278 12
-226 22 -260 100 -344 93 -101 258 -168 503 -204 59 -8 123 -15 143 -15 20 0
162 -31 314 -69 289 -72 480 -114 569 -126 l52 -7 -26 72 c-13 40 -24 87 -23
104 0 17 4 173 9 346 9 334 19 408 70 520 22 47 22 34 0 -55 -5 -22 -17 -94
-25 -160 -42 -320 61 -621 290 -851 214 -215 510 -328 815 -311 495 27 896
393 971 886 26 169 -4 398 -73 571 -92 227 -306 448 -533 551 -223 101 -520
114 -761 34 -76 -26 -238 -103 -285 -137 -54 -38 -27 -9 34 38 83 62 230 130
348 161 126 33 319 35 456 5 334 -74 596 -275 740 -567 100 -203 124 -362 124
-827 0 -236 0 -237 23 -250 39 -22 249 -21 942 6 885 34 1302 46 1634 46 150
0 290 4 310 10 33 9 873 31 1691 45 179 3 339 8 356 11 l32 4 -5 83 c-8 124
15 477 38 591 71 352 305 664 614 818 237 119 504 147 765 82 81 -21 267 -108
350 -164 154 -105 296 -272 386 -455 97 -198 124 -355 124 -716 l0 -209 38 0
c52 0 344 26 562 50 215 24 367 48 570 90 80 16 190 36 246 43 124 17 168 38
204 94 26 41 33 60 61 183 7 31 16 175 21 335 4 154 10 306 14 338 8 79 -24
182 -81 262 -52 72 -199 233 -275 301 -289 259 -618 433 -1072 568 -240 72
-641 165 -758 177 -58 6 -211 22 -340 37 -450 50 -641 34 -825 -69 -223 -123
-350 -172 -564 -215 -69 -14 -160 -34 -202 -44 -117 -30 -581 -87 -622 -76
-29 7 -25 -23 -51 382 -14 215 -22 248 -65 298 -49 55 -141 64 -205 19 -71
-50 -75 -65 -98 -340 -15 -186 -18 -260 -10 -298 5 -27 7 -53 4 -56 -8 -8
-1952 -36 -2070 -30 -22 1 -8 25 19 31 32 8 50 63 51 160 0 90 -16 156 -42
170 -24 13 -125 13 -169 0 -39 -11 -74 3 -69 27 2 9 39 37 83 63 84 48 96 56
370 241 94 64 202 132 242 153 104 55 109 62 93 138 -12 56 -38 99 -57 97 -5
0 -20 -4 -35 -9z m-701 -707 c2 -6 -20 -27 -50 -46 -30 -20 -67 -51 -82 -71
-14 -19 -41 -40 -59 -46 -59 -19 -107 -91 -90 -135 4 -9 24 -25 46 -36 21 -11
36 -24 33 -29 -8 -14 -432 -13 -440 0 -7 12 163 124 380 250 88 51 174 101
190 111 32 20 66 21 72 2z m22 -345 c58 -10 63 -13 36 -19 -39 -9 -139 -11
-159 -3 -13 5 -14 9 -5 20 14 17 43 18 128 2z m-2434 -795 c96 -20 256 -100
338 -168 265 -220 387 -603 293 -925 -118 -403 -499 -658 -912 -610 -239 27
-455 144 -601 326 -376 467 -151 1161 440 1359 137 45 285 52 442 18z m-925
-71 c0 -13 -12 -22 -22 -16 -10 6 -1 24 13 24 5 0 9 -4 9 -8z m-30 -30 c0 -5
-11 -19 -25 -32 -28 -27 -36 -8 -8 22 17 19 33 24 33 10z"/>
<path d="M2557 3140 c-285 -60 -500 -267 -578 -555 -17 -64 -22 -108 -22 -220
0 -124 3 -151 27 -230 104 -346 397 -565 756 -565 138 0 225 20 335 74 359
179 520 593 390 1003 -63 198 -230 379 -421 457 -140 57 -324 70 -487 36z m28
-226 c0 -108 -2 -123 -25 -164 -36 -64 -94 -93 -175 -86 -83 7 -205 52 -205
76 0 28 59 99 124 152 62 50 251 151 270 145 7 -3 11 -44 11 -123z m241 100
c12 -45 -6 -335 -22 -366 -37 -71 -121 -62 -152 18 -10 28 -42 284 -42 344 l0
30 105 0 c105 0 105 0 111 -26z m151 -6 c64 -24 185 -103 230 -150 35 -38 83
-106 83 -120 0 -12 -80 -47 -145 -64 -72 -20 -125 -17 -175 9 -74 36 -113 119
-127 259 -8 90 -2 102 44 93 20 -3 61 -16 90 -27z m-669 -389 c157 -52 201
-77 221 -127 23 -55 -28 -112 -100 -112 -32 0 -336 99 -347 113 -17 20 38 177
62 177 6 0 80 -23 164 -51z m1040 24 c29 -43 44 -88 40 -124 l-3 -33 -164 -54
c-127 -41 -172 -52 -199 -47 -48 9 -82 46 -82 89 0 60 39 87 207 144 82 28
156 51 165 51 9 1 25 -11 36 -26z m-1198 -198 c110 -43 179 -95 212 -159 30
-60 21 -143 -26 -232 -47 -90 -79 -129 -98 -121 -25 9 -107 150 -135 229 -33
92 -47 308 -20 308 2 0 32 -11 67 -25z m1244 9 c21 -55 -9 -246 -54 -342 -44
-95 -102 -182 -121 -182 -22 0 -94 112 -120 186 -51 145 16 249 211 327 77 31
76 31 84 11z m-799 -230 c41 -16 57 -101 30 -157 -19 -41 -204 -277 -216 -277
-5 0 -36 19 -69 43 -38 27 -60 49 -60 62 0 11 32 61 71 110 39 50 89 116 110
147 51 74 83 91 134 72z m381 -13 c20 -12 46 -47 71 -93 22 -41 64 -107 92
-145 28 -39 51 -75 51 -81 0 -11 -123 -102 -138 -102 -19 0 -221 279 -228 315
-18 96 69 156 152 106z m-142 -271 c46 -22 141 -108 172 -156 15 -22 15 -27 3
-35 -31 -19 -130 -32 -254 -33 -147 0 -234 9 -261 28 -24 18 -12 45 56 119 97
106 179 128 284 77z"/>
<path d="M9785 3419 c-526 -76 -905 -517 -905 -1055 0 -458 306 -860 752 -988
389 -112 778 -11 1050 272 96 100 144 169 198 285 132 282 126 621 -15 914
-197 406 -631 637 -1080 572z m325 -191 c145 -27 287 -104 409 -222 114 -111
183 -222 237 -386 26 -79 28 -96 28 -255 0 -165 0 -173 -32 -265 -95 -282
-311 -485 -597 -561 -153 -40 -364 -27 -525 32 -335 124 -570 451 -570 794 0
277 162 568 406 731 197 131 415 176 644 132z"/>
<path d="M9825 3154 c-127 -21 -273 -83 -372 -158 -330 -250 -402 -734 -162
-1081 121 -175 313 -301 514 -336 107 -18 283 -7 380 26 251 83 445 284 527
545 33 108 33 318 0 434 -47 162 -145 309 -270 406 -77 59 -200 121 -287 145
-60 16 -272 28 -330 19z m-41 -130 c3 -9 6 -47 6 -84 0 -216 -91 -310 -262
-270 -63 15 -158 55 -158 67 0 17 102 123 161 169 59 45 214 134 235 134 7 0
15 -7 18 -16z m234 -154 c1 -91 0 -175 -3 -187 -9 -36 -55 -83 -82 -83 -77 0
-96 46 -101 238 -2 83 -1 164 2 177 6 25 8 26 94 23 l87 -3 3 -165z m163 141
c73 -31 138 -73 218 -140 63 -54 125 -131 113 -143 -18 -18 -161 -59 -224 -65
-87 -8 -147 19 -183 81 -37 64 -53 210 -30 284 6 18 33 14 106 -17z m-673
-392 c125 -42 160 -58 188 -85 62 -63 37 -133 -53 -150 -27 -5 -72 5 -200 47
-91 30 -168 59 -170 66 -10 27 49 173 70 173 6 0 81 -23 165 -51z m1041 18
c11 -18 26 -54 33 -80 10 -40 10 -49 -2 -61 -8 -8 -87 -37 -175 -66 -178 -59
-197 -60 -247 -9 -26 25 -29 35 -24 62 11 55 45 77 208 133 84 29 161 53 170
53 9 1 25 -14 37 -32z m-1182 -197 c151 -58 230 -145 219 -242 -3 -27 -14 -69
-26 -95 -30 -69 -102 -173 -120 -173 -29 0 -122 162 -154 270 -18 59 -33 228
-23 254 8 21 13 21 104 -14z m1221 -66 c2 -49 -2 -120 -9 -157 -14 -86 -74
-207 -129 -264 -23 -23 -39 -46 -36 -52 3 -5 -2 -15 -11 -22 -33 -28 -139 -89
-153 -89 -29 1 -184 245 -210 333 -11 34 5 84 30 97 33 18 77 11 109 -16 17
-14 63 -69 103 -120 39 -52 72 -93 75 -91 2 2 -10 33 -27 69 -69 148 -42 256
85 336 46 29 145 71 160 68 6 -2 11 -43 13 -92z m-769 -170 c41 -52 24 -112
-64 -236 -35 -48 -72 -107 -85 -132 -12 -25 -27 -46 -33 -46 -20 0 -150 75
-160 92 -9 13 12 46 107 171 64 85 127 159 139 165 39 19 74 14 96 -14z m223
-271 c58 -32 171 -148 166 -171 -6 -31 -90 -44 -273 -44 -168 0 -254 13 -262
38 -6 18 86 132 131 163 85 58 150 62 238 14z"/>
</g>
</svg>
